<svg width="139" height="41" viewBox="0 0 139 41" fill="none" xmlns="http://www.w3.org/2000/svg">
<path d="M32.3731 0.7923C33.8298 0.354725 35.3655 1.18093 35.803 2.63767L41.2077 20.6306C41.6453 22.0874 40.8191 23.623 39.3624 24.0606L21.3694 29.4653C19.9127 29.9029 18.377 29.0767 17.9394 27.6199L12.5347 9.62697C12.0972 8.17022 12.9234 6.63457 14.3801 6.197L32.3731 0.7923Z" fill="#F4BF00"/>
<path fill-rule="evenodd" clip-rule="evenodd" d="M32.704 4.28747L16.0299 9.29601L21.0384 25.9701L37.7126 20.9616L32.704 4.28747ZM35.803 2.63767C35.3655 1.18093 33.8298 0.354725 32.3731 0.7923L14.3801 6.197C12.9234 6.63457 12.0972 8.17022 12.5347 9.62697L17.9394 27.6199C18.377 29.0767 19.9127 29.9029 21.3694 29.4653L39.3624 24.0606C40.8191 23.623 41.6453 22.0874 41.2077 20.6306L35.803 2.63767Z" fill="white"/>
<path d="M24.3292 15.8663C25.839 16.0508 26.9134 17.4243 26.7289 18.9341L24.4503 37.5826C24.2658 39.0924 22.8923 40.1668 21.3825 39.9823L2.73399 37.7036C1.22417 37.5191 0.149781 36.1456 0.334268 34.6358L2.61295 15.9874C2.79744 14.4775 4.17094 13.4032 5.68076 13.5876L24.3292 15.8663Z" fill="#0F5EC7"/>
<path fill-rule="evenodd" clip-rule="evenodd" d="M23.2282 19.2L5.94665 17.0884L3.83499 34.3699L21.1166 36.4816L23.2282 19.2ZM26.7289 18.9341C26.9134 17.4243 25.839 16.0508 24.3292 15.8663L5.68076 13.5876C4.17094 13.4032 2.79744 14.4775 2.61295 15.9874L0.334268 34.6358C0.149781 36.1456 1.22417 37.5191 2.73399 37.7036L21.3825 39.9823C22.8923 40.1668 24.2658 39.0924 24.4503 37.5826L26.7289 18.9341Z" fill="white"/>
<path d="M61.9307 29.2391C60.5522 29.2391 59.2587 28.978 58.0503 28.4558C56.859 27.9336 55.8038 27.2093 54.8848 26.2828C53.9827 25.3395 53.2764 24.2614 52.7659 23.0486C52.2553 21.8189 52 20.505 52 19.1069C52 17.7256 52.2468 16.4286 52.7403 15.2157C53.2509 13.9861 53.9572 12.908 54.8592 11.9815C55.7783 11.0551 56.8335 10.3307 58.0248 9.80855C59.2332 9.26952 60.5351 9 61.9307 9C63.1561 9 64.2709 9.17687 65.275 9.53061C66.2791 9.88435 67.2492 10.4487 68.1853 11.2235C68.3384 11.3414 68.4235 11.4846 68.4406 11.6531C68.4746 11.8047 68.4576 11.9563 68.3895 12.1079C68.3214 12.2426 68.2193 12.3437 68.0832 12.4111C68.0491 12.5458 67.964 12.6469 67.8279 12.7143C67.6917 12.7817 67.53 12.8069 67.3428 12.7901C67.1726 12.7732 67.0024 12.6974 66.8322 12.5627C66.1685 11.99 65.4452 11.5688 64.6623 11.2993C63.8794 11.013 62.9689 10.8698 61.9307 10.8698C60.8245 10.8698 59.7863 11.0888 58.8162 11.5267C57.8631 11.9647 57.0207 12.5627 56.2888 13.3207C55.557 14.0787 54.9784 14.9546 54.5529 15.9485C54.1444 16.9423 53.9402 17.9951 53.9402 19.1069C53.9402 20.2523 54.1444 21.322 54.5529 22.3158C54.9784 23.3097 55.557 24.1856 56.2888 24.9436C57.0207 25.7017 57.8631 26.2996 58.8162 26.7376C59.7863 27.1587 60.8245 27.3693 61.9307 27.3693C62.8668 27.3693 63.7518 27.2177 64.5857 26.9145C65.4197 26.6113 66.211 26.1733 66.9599 25.6006C67.1641 25.4321 67.3769 25.3648 67.5981 25.3984C67.8364 25.4321 68.0406 25.5332 68.2108 25.7017C68.381 25.8701 68.4661 26.0891 68.4661 26.3586C68.4661 26.4934 68.4406 26.6197 68.3895 26.7376C68.3555 26.8387 68.2874 26.9482 68.1853 27.0661C67.3173 27.8578 66.3472 28.4221 65.275 28.759C64.2028 29.079 63.088 29.2391 61.9307 29.2391Z" fill="#4D3D3D"/>
<path d="M76.1882 28.9864C75.5074 28.9864 74.8947 28.8011 74.3501 28.4305C73.8225 28.0599 73.4055 27.5462 73.0992 26.8892C72.8098 26.2323 72.6652 25.4742 72.6652 24.6152V10.2128C72.6652 9.92646 72.7503 9.69906 72.9205 9.53061C73.1077 9.34532 73.346 9.25267 73.6353 9.25267C73.9246 9.25267 74.1544 9.34532 74.3246 9.53061C74.5118 9.69906 74.6054 9.92646 74.6054 10.2128V24.6152C74.6054 25.3395 74.75 25.9291 75.0394 26.3839C75.3457 26.8387 75.7286 27.0661 76.1882 27.0661H76.8264C77.0817 27.0661 77.2859 27.1587 77.4391 27.344C77.5922 27.5125 77.6688 27.7399 77.6688 28.0262C77.6688 28.3126 77.5582 28.5484 77.337 28.7337C77.1327 28.9022 76.8604 28.9864 76.52 28.9864H76.1882Z" fill="#4D3D3D"/>
<path d="M86.5261 29.1127C85.2157 29.1127 84.0413 28.8095 83.0032 28.2031C81.965 27.5798 81.1396 26.7376 80.5269 25.6764C79.9312 24.6152 79.6334 23.4192 79.6334 22.0884C79.6334 20.7408 79.9397 19.5364 80.5524 18.4752C81.1821 17.414 82.0331 16.5802 83.1053 15.9738C84.1775 15.3505 85.3859 15.0389 86.7304 15.0389C88.0749 15.0389 89.2747 15.3505 90.3299 15.9738C91.4021 16.5802 92.2446 17.414 92.8573 18.4752C93.487 19.5364 93.8104 20.7408 93.8274 22.0884L93.036 22.6948C93.036 23.9077 92.7467 25.0026 92.168 25.9796C91.6064 26.9397 90.832 27.7062 89.8449 28.2789C88.8748 28.8348 87.7685 29.1127 86.5261 29.1127ZM86.7304 27.344C87.7175 27.344 88.594 27.1166 89.3598 26.6618C90.1427 26.207 90.7554 25.5837 91.1979 24.792C91.6574 23.9835 91.8872 23.0823 91.8872 22.0884C91.8872 21.0777 91.6574 20.1765 91.1979 19.3848C90.7554 18.5931 90.1427 17.9699 89.3598 17.5151C88.594 17.0434 87.7175 16.8076 86.7304 16.8076C85.7603 16.8076 84.8838 17.0434 84.1009 17.5151C83.318 17.9699 82.6968 18.5931 82.2373 19.3848C81.7778 20.1765 81.548 21.0777 81.548 22.0884C81.548 23.0823 81.7778 23.9835 82.2373 24.792C82.6968 25.5837 83.318 26.207 84.1009 26.6618C84.8838 27.1166 85.7603 27.344 86.7304 27.344ZM92.8318 30.5656C92.5424 30.5656 92.3042 30.4814 92.117 30.3129C91.9297 30.1276 91.8361 29.8918 91.8361 29.6054V23.7055L92.3212 21.7094L93.8274 22.0884V29.6054C93.8274 29.8918 93.7338 30.1276 93.5466 30.3129C93.3594 30.4814 93.1211 30.5656 92.8318 30.5656Z" fill="#4D3D3D"/>
<path d="M103.292 29.1127C102.288 29.1127 101.293 28.9443 100.306 28.6074C99.3184 28.2705 98.5185 27.7651 97.9058 27.0914C97.7186 26.8892 97.642 26.6618 97.6761 26.4091C97.7101 26.1565 97.8377 25.9375 98.059 25.7522C98.2973 25.5837 98.544 25.5164 98.7993 25.55C99.0546 25.5837 99.2674 25.6932 99.4375 25.8785C99.846 26.3502 100.382 26.7123 101.046 26.965C101.727 27.2177 102.475 27.344 103.292 27.344C104.552 27.344 105.462 27.1335 106.024 26.7123C106.586 26.2744 106.875 25.7522 106.892 25.1458C106.892 24.5394 106.603 24.0424 106.024 23.655C105.445 23.2507 104.492 22.9391 103.165 22.7201C101.446 22.4506 100.186 21.9789 99.3865 21.3052C98.5866 20.6314 98.1866 19.8312 98.1866 18.9048C98.1866 18.0457 98.4164 17.3298 98.8759 16.757C99.3354 16.1843 99.9481 15.7548 100.714 15.4684C101.48 15.1821 102.322 15.0389 103.241 15.0389C104.382 15.0389 105.36 15.2326 106.177 15.62C107.011 16.0074 107.683 16.5296 108.194 17.1866C108.364 17.4056 108.432 17.633 108.398 17.8688C108.364 18.1046 108.228 18.2983 107.99 18.45C107.785 18.5679 107.547 18.61 107.275 18.5763C107.02 18.5258 106.798 18.3994 106.611 18.1973C106.186 17.7088 105.692 17.355 105.13 17.1361C104.569 16.9002 103.922 16.7823 103.19 16.7823C102.254 16.7823 101.505 16.976 100.944 17.3635C100.382 17.734 100.101 18.2057 100.101 18.7784C100.101 19.1659 100.203 19.5028 100.408 19.7891C100.629 20.0755 100.995 20.3282 101.505 20.5471C102.033 20.7661 102.765 20.9514 103.701 21.103C104.977 21.3051 105.981 21.6084 106.713 22.0126C107.462 22.4001 107.99 22.8633 108.296 23.4023C108.619 23.9245 108.781 24.4972 108.781 25.1205C108.781 25.9122 108.543 26.6113 108.066 27.2177C107.607 27.8073 106.96 28.2705 106.126 28.6074C105.309 28.9443 104.365 29.1127 103.292 29.1127Z" fill="#4D3D3D"/>
<path d="M117.82 29.1127C116.816 29.1127 115.82 28.9443 114.833 28.6074C113.846 28.2705 113.046 27.7651 112.433 27.0914C112.246 26.8892 112.17 26.6618 112.204 26.4091C112.238 26.1565 112.365 25.9375 112.586 25.7522C112.825 25.5837 113.072 25.5164 113.327 25.55C113.582 25.5837 113.795 25.6932 113.965 25.8785C114.374 26.3502 114.91 26.7123 115.573 26.965C116.254 27.2177 117.003 27.344 117.82 27.344C119.079 27.344 119.99 27.1335 120.551 26.7123C121.113 26.2744 121.402 25.7522 121.419 25.1458C121.419 24.5394 121.13 24.0424 120.551 23.655C119.973 23.2507 119.02 22.9391 117.692 22.7201C115.973 22.4506 114.714 21.9789 113.914 21.3052C113.114 20.6314 112.714 19.8312 112.714 18.9048C112.714 18.0457 112.944 17.3298 113.403 16.757C113.863 16.1843 114.476 15.7548 115.241 15.4684C116.007 15.1821 116.85 15.0389 117.769 15.0389C118.909 15.0389 119.888 15.2326 120.705 15.62C121.539 16.0074 122.211 16.5296 122.721 17.1866C122.892 17.4056 122.96 17.633 122.926 17.8688C122.892 18.1046 122.755 18.2983 122.517 18.45C122.313 18.5679 122.075 18.61 121.802 18.5763C121.547 18.5258 121.326 18.3994 121.139 18.1973C120.713 17.7088 120.22 17.355 119.658 17.1361C119.096 16.9002 118.45 16.7823 117.718 16.7823C116.782 16.7823 116.033 16.976 115.471 17.3635C114.91 17.734 114.629 18.2057 114.629 18.7784C114.629 19.1659 114.731 19.5028 114.935 19.7891C115.156 20.0755 115.522 20.3282 116.033 20.5471C116.56 20.7661 117.292 20.9514 118.228 21.103C119.505 21.3051 120.509 21.6084 121.241 22.0126C121.99 22.4001 122.517 22.8633 122.824 23.4023C123.147 23.9245 123.309 24.4972 123.309 25.1205C123.309 25.9122 123.07 26.6113 122.594 27.2177C122.134 27.8073 121.488 28.2705 120.654 28.6074C119.837 28.9443 118.892 29.1127 117.82 29.1127Z" fill="#4D3D3D"/>
<path d="M129.871 35C129.735 35 129.582 34.9663 129.412 34.8989C128.833 34.6463 128.671 34.242 128.927 33.6861L137.172 15.6958C137.428 15.1568 137.836 15.0052 138.398 15.241C138.976 15.4768 139.138 15.8727 138.883 16.4286L130.611 34.4189C130.441 34.8063 130.194 35 129.871 35ZM132.705 28.5569C132.45 28.6748 132.211 28.7 131.99 28.6327C131.769 28.5484 131.59 28.38 131.454 28.1273L125.761 16.4538C125.642 16.2012 125.625 15.9653 125.71 15.7464C125.795 15.5274 125.965 15.3589 126.22 15.241C126.476 15.1231 126.714 15.1063 126.935 15.1905C127.157 15.2579 127.327 15.4179 127.446 15.6706L133.037 27.344C133.173 27.5967 133.215 27.8325 133.164 28.0515C133.113 28.2705 132.96 28.4389 132.705 28.5569Z" fill="#4D3D3D"/>
</svg>
