<svg width="600" height="600" viewBox="0 0 600 600" fill="none" xmlns="http://www.w3.org/2000/svg">
<circle cx="300" cy="300" r="297.5" fill="#F2F2F2" stroke="#0B5EC5" stroke-width="5"/>
<path d="M321.2 469C317.733 469 314.8 467.933 312.4 465.8C310 463.4 308.8 460.467 308.8 457V185.4L261.2 201C259.333 201.8 257.6 202.2 256 202.2C252.533 202.2 249.6 201.133 247.2 199C245.067 196.6 244 193.667 244 190.2C244 187.8 244.533 185.533 245.6 183.4C246.933 181.267 248.933 179.667 251.6 178.6L312.8 158.2C314.133 157.667 315.6 157.267 317.2 157C318.8 156.467 320.133 156.2 321.2 156.2C324.667 156.2 327.467 157.4 329.6 159.8C332 161.933 333.2 164.733 333.2 168.2V457C333.2 460.467 332 463.4 329.6 465.8C327.467 467.933 324.667 469 321.2 469Z" fill="black"/>
</svg>
