<svg width="600" height="600" viewBox="0 0 600 600" fill="none" xmlns="http://www.w3.org/2000/svg">
<circle cx="300" cy="300" r="297.5" fill="#F2F2F2" stroke="#0B5EC5" stroke-width="5"/>
<path d="M226.798 469C223.332 469 220.398 467.933 217.998 465.8C215.598 463.4 214.398 460.467 214.398 457C214.398 453.8 215.598 450.867 217.998 448.2L344.398 297.8C349.998 291.933 354.665 284.467 358.398 275.4C362.398 266.067 364.398 257.4 364.398 249.4C364.398 236.333 361.465 224.6 355.598 214.2C349.998 203.8 342.265 195.667 332.398 189.8C322.798 183.667 311.865 180.6 299.598 180.6C287.332 180.6 276.265 183.667 266.398 189.8C256.798 195.667 249.065 203.8 243.198 214.2C237.598 224.6 234.798 236.333 234.798 249.4C234.798 252.867 233.598 255.8 231.198 258.2C229.065 260.333 226.265 261.4 222.798 261.4C219.332 261.4 216.398 260.333 213.998 258.2C211.598 255.8 210.398 252.867 210.398 249.4C210.398 231.533 214.265 215.667 221.998 201.8C229.998 187.667 240.665 176.6 253.998 168.6C267.598 160.333 282.798 156.2 299.598 156.2C316.665 156.2 331.865 160.333 345.198 168.6C358.532 176.6 369.065 187.667 376.798 201.8C384.798 215.667 388.798 231.533 388.798 249.4C388.798 262.467 386.132 274.333 380.798 285C375.732 295.4 368.932 305.533 360.398 315.4L250.398 444.6H384.798C388.265 444.6 391.065 445.8 393.198 448.2C395.598 450.6 396.798 453.533 396.798 457C396.798 460.467 395.598 463.4 393.198 465.8C391.065 467.933 388.265 469 384.798 469H226.798Z" fill="black"/>
</svg>
