<svg width="600" height="600" viewBox="0 0 600 600" fill="none" xmlns="http://www.w3.org/2000/svg">
<circle cx="300" cy="300" r="297.5" fill="#F2F2F2" stroke="#0B5EC5" stroke-width="5"/>
<path d="M300.798 472.6C283.198 472.6 267.198 468.6 252.798 460.6C238.665 452.6 227.332 441.667 218.798 427.8C210.532 413.667 206.398 397.933 206.398 380.6C206.398 376.867 207.465 373.8 209.598 371.4C211.732 368.733 214.798 367.4 218.798 367.4C222.532 367.4 225.465 368.733 227.598 371.4C229.732 373.8 230.798 376.867 230.798 380.6C230.798 393.4 233.865 405 239.998 415.4C246.398 425.533 254.798 433.667 265.198 439.8C275.865 445.667 287.732 448.6 300.798 448.6C323.732 448.6 341.332 442.2 353.598 429.4C366.132 416.333 372.398 400.2 372.398 381C372.398 366.6 369.332 354.333 363.198 344.2C357.065 333.8 348.665 325.933 337.998 320.6C327.598 315 315.865 312.2 302.798 312.2C299.332 312.2 296.398 311.133 293.998 309C291.865 306.6 290.798 303.667 290.798 300.2C290.798 296.733 291.865 293.933 293.998 291.8C296.398 289.4 299.332 288.2 302.798 288.2C313.465 288.2 322.932 285.667 331.198 280.6C339.732 275.267 346.398 268.333 351.198 259.8C356.265 251.267 358.798 242.067 358.798 232.2C358.798 216.467 353.732 203.4 343.598 193C333.465 182.333 319.465 177 301.598 177C283.732 177 269.198 182.067 257.998 192.2C246.798 202.067 241.198 214.467 241.198 229.4C241.198 232.867 239.998 235.8 237.598 238.2C235.465 240.333 232.532 241.4 228.798 241.4C225.065 241.4 222.132 240.2 219.998 237.8C217.865 235.4 216.798 232.6 216.798 229.4C216.798 215 220.398 202.067 227.598 190.6C234.798 179.133 244.798 170.067 257.598 163.4C270.398 156.733 285.065 153.4 301.598 153.4C317.065 153.4 330.932 156.867 343.198 163.8C355.465 170.733 365.198 180.2 372.398 192.2C379.598 203.933 383.198 217.267 383.198 232.2C383.198 240.2 381.065 248.733 376.798 257.8C372.798 266.6 367.198 274.733 359.998 282.2C352.798 289.4 344.665 295 335.598 299C349.198 302.467 360.532 308.467 369.598 317C378.665 325.267 385.465 335 389.998 346.2C394.532 357.4 396.798 369 396.798 381C396.798 398.333 392.665 413.933 384.398 427.8C376.132 441.667 364.798 452.6 350.398 460.6C335.998 468.6 319.465 472.6 300.798 472.6Z" fill="black"/>
</svg>
